<svg xmlns="http://www.w3.org/2000/svg" xmlns:xlink="http://www.w3.org/1999/xlink" version="1.1" width="1000" height="1000" viewBox="0 0 1000 1000" xml:space="preserve">
<desc>Created with Fabric.js 3.5.0</desc>
<defs>
</defs>
<rect x="0" y="0" width="100%" height="100%" fill="rgba(102,51,102,0)"/>
<g transform="matrix(64.9309 0 0 64.9309 500 499.9998)" id="908362">
<path style="stroke: none; stroke-width: 1; stroke-dasharray: none; stroke-linecap: butt; stroke-dashoffset: 0; stroke-linejoin: miter; stroke-miterlimit: 4; is-custom-font: none; font-file-url: none; fill: rgb(255,255,255); fill-rule: evenodd; opacity: 1;" vector-effect="non-scaling-stroke" transform=" translate(-8, -7.9996)" d="M 8 15 a 0.5 0.5 0 0 0 0.5 -0.5 V 2.707 l 3.146 3.147 a 0.5 0.5 0 0 0 0.708 -0.708 l -4 -4 a 0.5 0.5 0 0 0 -0.708 0 l -4 4 a 0.5 0.5 0 1 0 0.708 0.708 L 7.5 2.707 V 14.5 a 0.5 0.5 0 0 0 0.5 0.5 z" stroke-linecap="round"/>
</g>
</svg>